# xmcd
#
# Track frame offsets: 
#        150
#        59459
#        82365
#        175056
#        203012
#
# Disc length: 3146 seconds
#
# Revision: 2
# Processed by: cddbd v1.5.2PL0 Copyright (c) Steve Scherf et al.
# Submitted via: ExactAudioCopy v0.99pb3
#
DISCID=410c4805
DTITLE=Tangerine Dream - In Search Of Hades 15 of 18
DYEAR=2019
DGENRE=Electronic
TTITLE0=Bent Cold Sidewalk
TTITLE1=Rising Runner Missed By Endless Sender
TTITLE2=Madrigal Meridian
TTITLE3=Haunted Heights
TTITLE4=Baryll Blue
EXTD=
EXTT0=
EXTT1=
EXTT2=
EXTT3=
EXTT4=
PLAYORDER=
